<svg xmlns="http://www.w3.org/2000/svg" xmlns:xlink="http://www.w3.org/1999/xlink" fill="none" version="1.1" width="122" height="122" viewBox="0 0 122 122"><defs><filter id="master_svg0_797_48835" filterUnits="objectBoundingBox" color-interpolation-filters="sRGB" x="-28" y="-20" width="136" height="136"><feFlood flood-opacity="0" result="BackgroundImageFix"/><feColorMatrix in="SourceAlpha" type="matrix" values="0 0 0 0 0 0 0 0 0 0 0 0 0 0 0 0 0 0 127 0"/><feOffset dy="8" dx="0"/><feGaussianBlur stdDeviation="7"/><feColorMatrix type="matrix" values="0 0 0 0 0.8784313797950745 0 0 0 0 0.8980392217636108 0 0 0 0 0.9333333373069763 0 0 0 0.5 0"/><feBlend mode="normal" in2="BackgroundImageFix" result="effect1_dropShadow"/><feBlend mode="normal" in="SourceGraphic" in2="effect1_dropShadow" result="shape"/></filter><filter id="master_svg1_797_48835" filterUnits="objectBoundingBox" color-interpolation-filters="sRGB" x="-28" y="-20" width="136" height="136"><feFlood flood-opacity="0" result="BackgroundImageFix"/><feColorMatrix in="SourceAlpha" type="matrix" values="0 0 0 0 0 0 0 0 0 0 0 0 0 0 0 0 0 0 127 0"/><feOffset dy="8" dx="0"/><feGaussianBlur stdDeviation="7"/><feColorMatrix type="matrix" values="0 0 0 0 0.8784313797950745 0 0 0 0 0.8980392217636108 0 0 0 0 0.9333333373069763 0 0 0 0.5 0"/><feBlend mode="normal" in2="BackgroundImageFix" result="effect1_dropShadow"/><feBlend mode="normal" in="SourceGraphic" in2="effect1_dropShadow" result="shape"/></filter><mask id="master_svg2_797_48835" style="mask-type:alpha" maskUnits="userSpaceOnUse"><g filter="url(#master_svg1_797_48835)"><rect x="21" y="13" width="80" height="80" rx="20" fill="#FFFFFF" fill-opacity="1"/></g></mask><filter id="master_svg3_797_48829" filterUnits="objectBoundingBox" color-interpolation-filters="sRGB" x="-20" y="-16" width="78" height="64"><feFlood flood-opacity="0" result="BackgroundImageFix"/><feColorMatrix in="SourceAlpha" type="matrix" values="0 0 0 0 0 0 0 0 0 0 0 0 0 0 0 0 0 0 127 0"/><feOffset dy="4" dx="0"/><feGaussianBlur stdDeviation="5"/><feColorMatrix type="matrix" values="0 0 0 0 0.21568627655506134 0 0 0 0 0.545098066329956 0 0 0 0 1 0 0 0 0.30000001192092896 0"/><feBlend mode="normal" in2="BackgroundImageFix" result="effect1_dropShadow"/><feBlend mode="normal" in="SourceGraphic" in2="effect1_dropShadow" result="shape"/></filter></defs><g mask="url(#master_svg2_797_48835)"><g filter="url(#master_svg0_797_48835)"><rect x="21" y="13" width="80" height="80" rx="20" fill="#FFFFFF" fill-opacity="1"/></g><g><g><path d="M92.8771,80.82509999999999L92.5968,80.5235C93.1293,78.1384,93.2134,75.5339,92.8771,73.0666C92.709,71.8055,92.1485,70.6815,91.3078,69.7768C92.1205,67.611,92.3166,65.2259,91.8682,62.73107C91.3358,59.633160000000004,88.7576,57.49478,85.5909,57.49478C85.36670000000001,57.49478,85.1425,57.49478,84.8903,57.52219L83.18090000000001,56.89165C82.03190000000001,56.48042,80.7988,56.2611,79.50970000000001,56.2611C77.9404,56.2611,76.287,56.59008,74.71770000000001,57.22063C71.0185,55.795039,66.19839999999999,55.000000163407,61.042,55.000000163407C55.8856,55.000000163407,51.0935,55.795039,47.3664,57.22063C45.7971,56.59008,44.1717,56.2611,42.5743,56.2611C41.2852,56.2611,40.0522,56.48042,38.9032,56.89165L37.1937,57.52219C36.9695,57.49478,36.745400000000004,57.49478,36.4931,57.49478C33.35447,57.49478,30.74825,59.66058,30.21581,62.73107C29.76742,65.2259,29.96361,67.611,30.77628,69.7768C29.93556,70.6815,29.37509,71.8329,29.20695,73.0666C28.84265,75.5339,28.95475,78.1384,29.48719,80.5235L29.20695,80.82509999999999C26.57271,83.6488,25.0874462,87.37729999999999,25.00337812,91.29769999999999C24.91931,95.4099,26.40457,99.3029,29.15091,102.2089C29.82348,102.8943,30.524079999999998,103.5522,31.28073,104.1279C33.01822,108.7337,35.9327,112.2702,39.9962,114.6279C43.8074,116.8486,48.5434,118,54.0081,118C56.474199999999996,118,59.3886,117.205,60.986,115.4504C62.5833,117.205,65.4978,118,67.9639,118C73.45660000000001,118,78.16460000000001,116.876,81.97579999999999,114.6279C86.0113,112.2702,88.9538,108.7337,90.6632,104.1554C91.4479,103.5797,92.1765,102.9217,92.8491,102.2089C95.5954,99.2755,97.0807,95.4099,96.9966,91.29769999999999C96.9966,87.34989999999999,95.5113,83.6488,92.8771,80.82509999999999Z" fill="#FFFFFF" fill-opacity="1"/></g></g><g filter="url(#master_svg3_797_48829)"><path d="M42.24,28.9L42.5,26.7L54.36,26.7L54.1,28.9L49.28,28.9L47.74,41.72L45.38,41.72L46.92,28.9L42.24,28.9ZM58.08,41.8Q55.46,41.8,53.76,41.54L54.04,39.3Q56.480000000000004,39.6,58.34,39.6L58.6,39.6Q59.86,39.6,60.59,39.36Q61.32,39.120000000000005,61.64,38.66Q61.96,38.2,62.04,37.480000000000004Q62.08,37.12,62.08,36.980000000000004Q62.08,36.28,61.760000000000005,35.92Q61.44,35.56,60.81,35.41Q60.18,35.26,58.92,35.1Q57.480000000000004,34.94,56.64,34.6Q55.8,34.26,55.39,33.61Q54.980000000000004,32.96,54.980000000000004,31.86Q54.980000000000004,31.42,55.04,30.880000000000003Q55.3,28.62,56.56,27.66Q57.82,26.7,60.42,26.7L61.82,26.7Q63.34,26.7,65.18,26.740000000000002L64.92,28.94Q63.86,28.94,63.3,28.92L61.56,28.9L60.16,28.9Q58.7,28.9,58.03,29.41Q57.36,29.92,57.36,31.34Q57.36,31.96,57.6,32.269999999999996Q57.84,32.58,58.260000000000005,32.7Q58.68,32.82,59.620000000000005,32.96Q59.8,32.980000000000004,60.34,33.06Q61.82,33.28,62.7,33.64Q63.58,34,64.02,34.67Q64.46000000000001,35.34,64.46000000000001,36.480000000000004Q64.46000000000001,36.9,64.4,37.38Q64.2,39.04,63.53,40Q62.86,40.96,61.6,41.379999999999995Q60.34,41.8,58.34,41.8L58.08,41.8ZM66.6,28.9L66.86,26.7L78.72,26.7L78.46000000000001,28.9L73.64,28.9L72.1,41.72L69.74,41.72L71.28,28.9L66.6,28.9Z" fill="#378BFF" fill-opacity="1"/></g><g style="opacity:0.10000000149011612;"><path d="M97.1129458984375,79.09536123046875L95.7814458984375,77.66246123046875C96.6469458984375,74.79676123046875,96.8466458984375,71.54016123046875,96.4139458984375,68.44636123046875C96.1808458984375,66.88326123046875,95.2155458984375,65.61316123046875,93.8506458984375,64.96186123046876C95.2821458984375,62.48686123046875,95.7814458984375,59.45826123046875,95.2155458984375,56.23421123046875C94.8160458984375,53.92204123046875,92.8853458984375,52.29375123046875,90.5218458984375,52.29375123046875C90.2887458984375,52.29375123046875,90.0557458984375,52.29375123046875,89.8560458984375,52.32631123046875C89.5564458984375,52.358881230468754,89.2568458984375,52.32631123046875,88.9572458984375,52.22862123046875L86.6936458984375,51.41447123046875C85.6283458984375,51.02368123046875,84.4965458984375,50.82829123046875,83.2981458984375,50.82829123046875C81.4339458984375,50.82829123046875,79.4699458984375,51.34934123046875,77.6723458984375,52.22862123046875C73.7109458984375,50.43750123046875,67.8854458984375,49.33026123046875,61.3941458984375,49.33026123046875C54.9027458984375,49.33026123046875,49.077245898437496,50.47006123046875,45.1158458984375,52.22862123046875C43.318245898437496,51.31677123046875,41.3542458984375,50.82829123046875,39.4900458984375,50.82829123046875C38.2916458984375,50.82829123046875,37.159845898437496,51.02368123046875,36.0945458984375,51.41447123046875L33.8309458984375,52.22862123046875C33.5313458984375,52.32631123046875,33.2317458984375,52.358881230468754,32.9321458984375,52.32631123046875C32.732445898437504,52.29375123046875,32.4994458984375,52.29375123046875,32.2663458984375,52.29375123046875C29.9028858984375,52.29375123046875,27.9721258984375,53.92204123046875,27.5726458984375,56.23421123046875C27.0067458984375,59.45826123046875,27.5060858984375,62.48686123046875,28.9375058984375,64.96186123046876C27.6059458984375,65.61316123046875,26.6072958984375,66.88326123046875,26.3742758984375,68.44636123046875C25.9082358984375,71.57266123046875,26.1412558984375,74.79676123046875,27.0067758984375,77.66246123046875L25.6752158984375,79.09536123046875C23.0120958984375,81.96116123046875,21.5141068984375,85.73886123046876,21.4142444084375,89.74446123046874C21.3143819984375,93.91286123046875,22.8123658984375,97.85326123046875,25.6086458984375,100.78426123046876C26.474165898437498,101.72866123046876,27.439535898437498,102.54276123046876,28.4381958984375,103.22666123046875C30.2357958984375,108.46976123046875,33.3982458984375,112.44276123046875,37.8589458984375,115.04806123046875C41.9534458984375,117.45786123046875,47.0799458984375,118.66286123046875,53.071945898437505,118.66286123046875C55.6684458984375,118.66286123046875,58.7643458984375,117.71846123046875,59.6964458984375,115.95986123046875C60.2290458984375,114.98286123046876,60.0292458984375,113.84306123046875,59.1637458984375,112.60556123046875C58.8641458984375,112.21476123046875,58.5312458984375,111.66116123046875,58.2649458984375,111.14016123046875C57.7323458984375,110.00036123046874,57.7989458984375,109.02336123046875,58.4647458984375,108.04636123046875C59.0972458984375,107.13456123046875,60.1624458984375,106.58096123046874,61.3608458984375,106.58096123046874C62.5259458984375,106.58096123046874,63.5912458984375,107.13456123046875,64.2569458984375,108.04636123046875L64.39014589843751,108.27436123046874L64.4234458984375,108.30686123046874L64.4567458984375,108.33946123046874C64.95604589843751,109.21876123046874,64.95604589843751,110.09806123046874,64.4900458984375,111.14016123046875C64.2237458984375,111.69376123046875,63.8908458984375,112.21476123046875,63.5912458984375,112.60556123046875C62.6924458984375,113.84306123046875,62.5260458984375,114.95036123046874,63.0586458984375,115.95986123046875C63.9906458984375,117.75096123046875,67.11984589843749,118.66286123046875,69.6830458984375,118.66286123046875C75.6750458984375,118.66286123046875,80.8015458984375,117.45786123046875,84.8960458984375,115.04806123046875C89.3567458984375,112.44276123046875,92.5192458984375,108.46976123046875,94.3168458984375,103.25926123046875C95.3487458984375,102.57536123046876,96.3141458984375,101.72866123046876,97.2129458984375,100.78426123046876C100.0092458984375,97.82076123046875,101.4739458984375,93.91286123046875,101.4073458984375,89.74446123046874C101.2740458984375,85.73886123046876,99.7427458984375,81.92866123046875,97.1129458984375,79.09536123046875ZM31.9667458984375,56.950661230468754C32.0000458984375,56.72270123046875,32.0998458984375,56.65756123046875,32.233045898437496,56.65756123046875C32.5992458984375,56.65756123046875,33.1984458984375,57.30888123046875,33.4314458984375,57.56941123046875C34.2636458984375,58.51381123046875,35.2290458984375,59.13256123046875,36.2276458984375,59.13256123046875C36.5272458984375,59.13256123046875,36.8601458984375,59.06743123046875,37.1597458984375,58.96973123046875C37.7589458984375,58.741781230468746,38.1917458984375,58.18816123046875,38.291545898437505,57.56941123046875C38.4247458984375,56.72270123046875,38.125145898437495,56.16908123046875,37.6590458984375,55.55033123046875C38.2582458984375,55.32237123046875,38.857445898437504,55.25724123046875,39.4899458984375,55.25724123046875C41.1877458984375,55.25724123046875,42.9187458984375,55.94112123046875,44.2502458984375,56.88552123046875C45.0825458984375,57.47171123046875,46.0811458984375,58.41612123046875,47.2130458984375,58.41612123046875C47.4127458984375,58.41612123046875,47.6124458984375,58.383551230468754,47.845445898437504,58.31842123046875C49.609745898437495,57.73224123046875,48.5778458984375,55.71316123046875,48.8441458984375,55.68059123046875C49.110445898437504,55.64802123046875,49.3435458984375,55.64802123046875,49.5765458984375,55.64802123046875C58.3647458984375,55.64802123046875,60.7948458984375,69.42336123046874,50.4087458984375,69.42336123046874L50.375445898437505,69.42336123046874C50.3421458984375,69.42336123046874,50.3421458984375,69.42336123046874,50.3088458984375,69.42336123046874C47.0798458984375,69.42336123046874,45.5818458984375,67.72996123046875,42.053245898437495,66.94836123046875C39.223645898437496,66.32956123046876,36.4940458984375,66.52496123046875,34.1970458984375,64.44076123046875C32.0000458984375,62.45426123046875,31.5339458984375,59.55596123046875,31.9667458984375,56.950661230468754ZM83.2981458984375,55.19210123046875C83.93064589843749,55.19210123046875,84.5297458984375,55.28980123046875,85.1290458984375,55.485201230468746C84.6296458984375,56.07138123046875,84.3300458984375,56.65756123046875,84.4965458984375,57.50427123046875C84.5963458984375,58.12302123046875,85.02914589843749,58.676641230468746,85.6283458984375,58.90460123046875C85.9278458984375,59.03487123046875,86.2608458984375,59.06743123046875,86.5603458984375,59.06743123046875C87.5590458984375,59.06743123046875,88.5244458984375,58.48125123046875,89.3566458984375,57.50427123046875C89.5231458984375,57.30888123046875,90.1556458984375,56.65756123046875,90.4884458984375,56.65756123046875C90.6216458984375,56.65756123046875,90.7215458984375,56.75526123046875,90.7548458984375,56.950661230468754C91.2208458984375,59.55596123046875,90.7215458984375,62.45426123046875,88.5910458984375,64.40826123046875C86.2940458984375,66.49246123046875,83.5311458984375,66.29706123046876,80.7348458984375,66.91576123046875C77.2062458984375,67.69736123046874,75.7082458984375,69.39076123046875,72.4792458984375,69.39076123046875C72.4459458984375,69.39076123046875,72.4459458984375,69.39076123046875,72.4126458984375,69.39076123046875L72.37934589843749,69.39076123046875C61.9932458984375,69.39076123046875,64.4233458984375,55.61546123046875,73.2116458984375,55.61546123046875C73.4446458984375,55.61546123046875,73.7109458984375,55.61546123046875,73.9439458984375,55.64802123046875C74.2102458984375,55.68059123046875,73.1782458984375,57.69967123046875,74.94264589843749,58.28585123046875C75.1423458984375,58.35098123046875,75.3753458984375,58.383551230468754,75.5751458984375,58.383551230468754C76.70694589843751,58.383551230468754,77.6723458984375,57.43914123046875,78.5378458984375,56.85296123046875C79.8360458984375,55.90855123046875,81.6003458984375,55.19210123046875,83.2981458984375,55.19210123046875ZM96.7800458984375,91.43786123046874C96.7467458984375,91.60066123046875,96.7467458984375,91.79606123046875,96.7135458984375,91.95886123046876C96.3806458984375,94.07566123046874,95.4485458984375,96.12726123046875,93.8506458984375,97.78816123046875C91.3540458984375,100.42596123046874,88.3580458984375,101.66346123046876,85.0957458984375,101.66346123046876C81.7335458984375,101.66346123046876,78.1383458984375,100.32826123046874,74.5431458984375,97.88586123046875C71.54714589843749,95.73656123046875,68.6843458984375,93.32666123046874,65.1557458984375,92.25196123046875C65.0225458984375,92.21946123046875,64.85614589843749,92.15426123046875,64.7229458984375,92.12176123046875C63.6910458984375,91.82866123046875,62.5591458984375,91.69836123046875,61.3940458984375,91.69836123046875C60.1956458984375,91.69836123046875,59.0971458984375,91.86116123046875,58.0651458984375,92.12176123046875C57.9320458984375,92.15426123046875,57.7656458984375,92.21946123046875,57.6324458984375,92.25196123046875C56.9000458984375,92.47996123046875,56.2010458984375,92.74046123046875,55.5019458984375,93.06616123046875C55.3688458984375,93.13126123046875,55.2356458984375,93.19636123046875,55.1024458984375,93.26156123046874C54.7030458984375,93.45696123046875,54.3035458984375,93.68486123046875,53.9040458984375,93.91286123046875C53.7709458984375,93.97796123046875,53.6377458984375,94.07566123046874,53.5046458984375,94.14076123046874C53.1051458984375,94.36876123046875,52.7389458984375,94.62926123046876,52.3395458984375,94.88976123046875C51.4407458984375,95.47596123046876,50.5752458984375,96.12736123046875,49.7096458984375,96.77866123046874C49.476645898437496,96.97406123046875,49.210345898437495,97.13686123046875,48.9773458984375,97.33226123046876C48.7443458984375,97.52766123046875,48.4779458984375,97.69046123046874,48.2449458984375,97.88586123046875C44.6497458984375,100.36086123046874,41.0212458984375,101.66346123046876,37.6924458984375,101.66346123046876C34.4300458984375,101.66346123046876,31.4341458984375,100.42596123046874,28.9374558984375,97.78816123046875C28.1385258984375,96.94146123046875,27.5060358984375,96.02956123046874,27.0399858984375,95.05266123046874C26.9734258984375,94.88976123046875,26.8735358984375,94.72696123046876,26.8069658984375,94.56416123046876C26.6738158984375,94.23846123046874,26.5406558984375,93.88026123046875,26.4407858984375,93.55466123046875C26.1744758984375,92.70786123046875,26.0080458984375,91.79606123046875,25.9414558984375,90.91676123046875C25.8082958984375,89.12566123046875,26.1079058984375,87.33456123046875,26.7403758984375,85.67366123046875C26.9401058984375,85.18516123046875,27.1731258984375,84.69676123046875,27.4061458984375,84.24076123046875C27.5725958984375,83.91516123046875,27.7723258984375,83.62206123046874,27.9720458984375,83.32896123046875C28.271635898437502,82.90556123046875,28.6045458984375,82.48226123046875,28.9707258984375,82.09146123046875C31.234365898437503,85.90166123046875,34.962745898437504,88.76746123046874,40.0891458984375,88.76746123046874C40.4886458984375,88.76746123046874,40.9214458984375,88.73486123046875,41.3541458984375,88.70226123046875C43.884145898437495,88.44176123046876,45.8481458984375,87.59506123046876,47.6124458984375,86.52036123046875C48.777545898437495,85.80396123046876,49.8427458984375,84.98976123046876,50.874745898437496,84.14306123046876C51.041245898437495,84.01286123046876,51.207645898437505,83.88256123046875,51.4073458984375,83.71976123046875C51.7402458984375,83.45916123046875,52.1064458984375,83.16616123046876,52.4393458984375,82.90556123046875C52.772245898437504,82.64506123046874,53.138445898437496,82.38456123046875,53.5045458984375,82.12406123046875C54.0372458984375,81.73326123046874,54.5698458984375,81.37496123046876,55.1357458984375,81.04936123046875C55.7016458984375,80.72366123046875,56.3008458984375,80.43056123046875,56.9333458984375,80.17006123046875C57.3660458984375,80.00726123046874,57.7655458984375,79.84436123046875,58.2315458984375,79.71416123046875C59.1303458984375,79.45366123046875,60.0957458984375,79.32336123046875,61.1609458984375,79.29076123046875C61.1943458984375,79.29076123046875,61.2941458984375,79.29076123046875,61.3607458984375,79.29076123046875C61.4272458984375,79.29076123046875,61.4938458984375,79.29076123046875,61.5604458984375,79.29076123046875C63.1583458984375,79.32336123046875,64.5564458984375,79.64896123046876,65.7881458984375,80.17006123046875C65.9878458984375,80.26776123046875,66.18754589843749,80.33286123046875,66.3873458984375,80.43056123046875C67.1862458984375,80.82136123046875,67.9519458984375,81.24476123046875,68.6509458984375,81.73326123046874C68.8174458984375,81.86346123046874,69.01714589843749,81.99376123046875,69.1836458984375,82.12406123046875C69.7162458984375,82.51476123046875,70.24884589843751,82.90556123046875,70.7481458984375,83.32896123046875C71.28084589843749,83.75226123046875,71.7801458984375,84.14306123046876,72.3127458984375,84.56646123046875C72.67894589843749,84.82696123046875,73.0118458984375,85.12006123046875,73.3779458984375,85.38056123046874C73.5444458984375,85.51086123046875,73.7441458984375,85.64116123046875,73.91064589843751,85.77136123046876C74.2768458984375,86.03186123046875,74.6429458984375,86.29246123046875,75.0424458984375,86.52036123046875C75.8080458984375,87.00886123046875,76.6403458984375,87.43226123046875,77.53914589843751,87.79046123046875C77.9718458984375,87.95326123046874,78.4711458984375,88.11616123046875,78.93724589843751,88.24636123046875C79.66954589843749,88.44176123046876,80.4352458984375,88.60456123046875,81.3007458984375,88.66976123046875C81.7667458984375,88.73486123046875,82.2328458984375,88.76746123046874,82.6988458984375,88.76746123046874C87.3593458984375,88.76746123046874,92.0863458984375,85.44576123046875,93.6841458984375,82.02626123046875C94.1835458984375,82.54736123046875,94.6162458984375,83.13356123046876,94.9824458984375,83.71976123046875C95.2487458984375,84.17566123046875,95.5150458984375,84.63156123046875,95.7147458984375,85.12006123046875C96.1475458984375,86.09706123046875,96.4471458984375,87.13916123046874,96.6135458984375,88.18126123046875C96.8799458984375,89.28846123046876,96.9132458984375,90.36316123046875,96.7800458984375,91.43786123046874ZM91.2874458984375,76.91346123046876C90.0224458984375,80.65856123046875,86.5936458984375,83.58946123046874,82.3660458984375,83.58946123046874C82.19954589843749,83.58946123046874,82.03314589843751,83.58946123046874,81.8666458984375,83.58946123046874C78.1716458984375,83.39406123046875,74.94264589843749,80.62596123046875,75.27544589843751,76.65296123046875C75.50854589843749,73.55926123046875,77.9718458984375,71.05166123046875,81.4006458984375,70.75856123046876C84.9292458984375,70.46546123046875,88.1582458984375,71.11676123046875,91.4538458984375,68.90226123046875C91.5203458984375,68.83716123046875,91.6203458984375,68.83716123046875,91.6868458984375,68.83716123046875C91.8200458984375,68.83716123046875,91.9198458984375,68.90226123046875,91.9198458984375,69.03256123046876C92.3193458984375,71.70296123046874,92.0863458984375,74.56876123046875,91.2874458984375,76.91346123046876ZM30.801595898437498,69.03256123046876C30.8348858984375,68.90226123046875,30.9347558984375,68.83716123046875,31.0346158984375,68.83716123046875C31.1011758984375,68.83716123046875,31.167775898437498,68.86976123046875,31.2676358984375,68.90226123046875C34.5632458984375,71.14936123046874,37.7922458984375,70.49806123046875,41.3208458984375,70.75856123046876C44.782945898437504,71.05166123046875,47.212945898437496,73.52666123046875,47.4459458984375,76.65296123046875C47.7455458984375,80.59346123046875,44.549845898437496,83.39406123046875,40.8547458984375,83.58946123046874C40.688345898437504,83.58946123046874,40.5219458984375,83.58946123046874,40.3554458984375,83.58946123046874C36.127745898437496,83.58946123046874,32.699045898437504,80.65856123046875,31.4340458984375,76.91346123046876C30.6684358984375,74.56876123046875,30.435415898437498,71.70296123046874,30.801595898437498,69.03256123046876Z" fill="#378BFF" fill-opacity="1"/></g><g><path d="M97.1129458984375,82.09536123046875L95.7814458984375,80.66246123046875C96.6469458984375,77.79676123046875,96.8466458984375,74.54016123046875,96.4139458984375,71.44636123046875C96.1808458984375,69.88326123046875,95.2155458984375,68.61316123046875,93.8506458984375,67.96186123046876C95.2821458984375,65.48686123046875,95.7814458984375,62.45826123046875,95.2155458984375,59.23421123046875C94.8160458984375,56.92204123046875,92.8853458984375,55.29375123046875,90.5218458984375,55.29375123046875C90.2887458984375,55.29375123046875,90.0557458984375,55.29375123046875,89.8560458984375,55.32631123046875C89.5564458984375,55.358881230468754,89.2568458984375,55.32631123046875,88.9572458984375,55.22862123046875L86.6936458984375,54.41447123046875C85.6283458984375,54.02368123046875,84.4965458984375,53.82829123046875,83.2981458984375,53.82829123046875C81.4339458984375,53.82829123046875,79.4699458984375,54.34934123046875,77.6723458984375,55.22862123046875C73.7109458984375,53.43750123046875,67.8854458984375,52.33026123046875,61.3941458984375,52.33026123046875C54.9027458984375,52.33026123046875,49.077245898437496,53.47006123046875,45.1158458984375,55.22862123046875C43.318245898437496,54.31677123046875,41.3542458984375,53.82829123046875,39.4900458984375,53.82829123046875C38.2916458984375,53.82829123046875,37.159845898437496,54.02368123046875,36.0945458984375,54.41447123046875L33.8309458984375,55.22862123046875C33.5313458984375,55.32631123046875,33.2317458984375,55.358881230468754,32.9321458984375,55.32631123046875C32.732445898437504,55.29375123046875,32.4994458984375,55.29375123046875,32.2663458984375,55.29375123046875C29.9028858984375,55.29375123046875,27.9721258984375,56.92204123046875,27.5726458984375,59.23421123046875C27.0067458984375,62.45826123046875,27.5060858984375,65.48686123046875,28.9375058984375,67.96186123046876C27.6059458984375,68.61316123046875,26.6072958984375,69.88326123046875,26.3742758984375,71.44636123046875C25.9082358984375,74.57266123046875,26.1412558984375,77.79676123046875,27.0067758984375,80.66246123046875L25.6752158984375,82.09536123046875C23.0120958984375,84.96116123046875,21.5141068984375,88.73886123046876,21.4142444084375,92.74446123046874C21.3143819984375,96.91286123046875,22.8123658984375,100.85326123046875,25.6086458984375,103.78426123046876C26.474165898437498,104.72866123046876,27.439535898437498,105.54276123046876,28.4381958984375,106.22666123046875C30.2357958984375,111.46976123046875,33.3982458984375,115.44276123046875,37.8589458984375,118.04806123046875C41.9534458984375,120.45786123046875,47.0799458984375,121.66286123046875,53.071945898437505,121.66286123046875C55.6684458984375,121.66286123046875,58.7643458984375,120.71846123046875,59.6964458984375,118.95986123046875C60.2290458984375,117.98286123046876,60.0292458984375,116.84306123046875,59.1637458984375,115.60556123046875C58.8641458984375,115.21476123046875,58.5312458984375,114.66116123046875,58.2649458984375,114.14016123046875C57.7323458984375,113.00036123046874,57.7989458984375,112.02336123046875,58.4647458984375,111.04636123046875C59.0972458984375,110.13456123046875,60.1624458984375,109.58096123046874,61.3608458984375,109.58096123046874C62.5259458984375,109.58096123046874,63.5912458984375,110.13456123046875,64.2569458984375,111.04636123046875L64.39014589843751,111.27436123046874L64.4234458984375,111.30686123046874L64.4567458984375,111.33946123046874C64.95604589843751,112.21876123046874,64.95604589843751,113.09806123046874,64.4900458984375,114.14016123046875C64.2237458984375,114.69376123046875,63.8908458984375,115.21476123046875,63.5912458984375,115.60556123046875C62.6924458984375,116.84306123046875,62.5260458984375,117.95036123046874,63.0586458984375,118.95986123046875C63.9906458984375,120.75096123046875,67.11984589843749,121.66286123046875,69.6830458984375,121.66286123046875C75.6750458984375,121.66286123046875,80.8015458984375,120.45786123046875,84.8960458984375,118.04806123046875C89.3567458984375,115.44276123046875,92.5192458984375,111.46976123046875,94.3168458984375,106.25926123046875C95.3487458984375,105.57536123046876,96.3141458984375,104.72866123046876,97.2129458984375,103.78426123046876C100.0092458984375,100.82076123046875,101.4739458984375,96.91286123046875,101.4073458984375,92.74446123046874C101.2740458984375,88.73886123046876,99.7427458984375,84.92866123046875,97.1129458984375,82.09536123046875ZM31.9667458984375,59.950661230468754C32.0000458984375,59.72270123046875,32.0998458984375,59.65756123046875,32.233045898437496,59.65756123046875C32.5992458984375,59.65756123046875,33.1984458984375,60.30888123046875,33.4314458984375,60.56941123046875C34.2636458984375,61.51381123046875,35.2290458984375,62.13256123046875,36.2276458984375,62.13256123046875C36.5272458984375,62.13256123046875,36.8601458984375,62.06743123046875,37.1597458984375,61.96973123046875C37.7589458984375,61.741781230468746,38.1917458984375,61.18816123046875,38.291545898437505,60.56941123046875C38.4247458984375,59.72270123046875,38.125145898437495,59.16908123046875,37.6590458984375,58.55033123046875C38.2582458984375,58.32237123046875,38.857445898437504,58.25724123046875,39.4899458984375,58.25724123046875C41.1877458984375,58.25724123046875,42.9187458984375,58.94112123046875,44.2502458984375,59.88552123046875C45.0825458984375,60.47171123046875,46.0811458984375,61.41612123046875,47.2130458984375,61.41612123046875C47.4127458984375,61.41612123046875,47.6124458984375,61.383551230468754,47.845445898437504,61.31842123046875C49.609745898437495,60.73224123046875,48.5778458984375,58.71316123046875,48.8441458984375,58.68059123046875C49.110445898437504,58.64802123046875,49.3435458984375,58.64802123046875,49.5765458984375,58.64802123046875C58.3647458984375,58.64802123046875,60.7948458984375,72.42336123046874,50.4087458984375,72.42336123046874L50.375445898437505,72.42336123046874C50.3421458984375,72.42336123046874,50.3421458984375,72.42336123046874,50.3088458984375,72.42336123046874C47.0798458984375,72.42336123046874,45.5818458984375,70.72996123046875,42.053245898437495,69.94836123046875C39.223645898437496,69.32956123046876,36.4940458984375,69.52496123046875,34.1970458984375,67.44076123046875C32.0000458984375,65.45426123046875,31.5339458984375,62.55596123046875,31.9667458984375,59.950661230468754ZM83.2981458984375,58.19210123046875C83.93064589843749,58.19210123046875,84.5297458984375,58.28980123046875,85.1290458984375,58.485201230468746C84.6296458984375,59.07138123046875,84.3300458984375,59.65756123046875,84.4965458984375,60.50427123046875C84.5963458984375,61.12302123046875,85.02914589843749,61.676641230468746,85.6283458984375,61.90460123046875C85.9278458984375,62.03487123046875,86.2608458984375,62.06743123046875,86.5603458984375,62.06743123046875C87.5590458984375,62.06743123046875,88.5244458984375,61.48125123046875,89.3566458984375,60.50427123046875C89.5231458984375,60.30888123046875,90.1556458984375,59.65756123046875,90.4884458984375,59.65756123046875C90.6216458984375,59.65756123046875,90.7215458984375,59.75526123046875,90.7548458984375,59.950661230468754C91.2208458984375,62.55596123046875,90.7215458984375,65.45426123046875,88.5910458984375,67.40826123046875C86.2940458984375,69.49246123046875,83.5311458984375,69.29706123046876,80.7348458984375,69.91576123046875C77.2062458984375,70.69736123046874,75.7082458984375,72.39076123046875,72.4792458984375,72.39076123046875C72.4459458984375,72.39076123046875,72.4459458984375,72.39076123046875,72.4126458984375,72.39076123046875L72.37934589843749,72.39076123046875C61.9932458984375,72.39076123046875,64.4233458984375,58.61546123046875,73.2116458984375,58.61546123046875C73.4446458984375,58.61546123046875,73.7109458984375,58.61546123046875,73.9439458984375,58.64802123046875C74.2102458984375,58.68059123046875,73.1782458984375,60.69967123046875,74.94264589843749,61.28585123046875C75.1423458984375,61.35098123046875,75.3753458984375,61.383551230468754,75.5751458984375,61.383551230468754C76.70694589843751,61.383551230468754,77.6723458984375,60.43914123046875,78.5378458984375,59.85296123046875C79.8360458984375,58.90855123046875,81.6003458984375,58.19210123046875,83.2981458984375,58.19210123046875ZM96.7800458984375,94.43786123046874C96.7467458984375,94.60066123046875,96.7467458984375,94.79606123046875,96.7135458984375,94.95886123046876C96.3806458984375,97.07566123046874,95.4485458984375,99.12726123046875,93.8506458984375,100.78816123046875C91.3540458984375,103.42596123046874,88.3580458984375,104.66346123046876,85.0957458984375,104.66346123046876C81.7335458984375,104.66346123046876,78.1383458984375,103.32826123046874,74.5431458984375,100.88586123046875C71.54714589843749,98.73656123046875,68.6843458984375,96.32666123046874,65.1557458984375,95.25196123046875C65.0225458984375,95.21946123046875,64.85614589843749,95.15426123046875,64.7229458984375,95.12176123046875C63.6910458984375,94.82866123046875,62.5591458984375,94.69836123046875,61.3940458984375,94.69836123046875C60.1956458984375,94.69836123046875,59.0971458984375,94.86116123046875,58.0651458984375,95.12176123046875C57.9320458984375,95.15426123046875,57.7656458984375,95.21946123046875,57.6324458984375,95.25196123046875C56.9000458984375,95.47996123046875,56.2010458984375,95.74046123046875,55.5019458984375,96.06616123046875C55.3688458984375,96.13126123046875,55.2356458984375,96.19636123046875,55.1024458984375,96.26156123046874C54.7030458984375,96.45696123046875,54.3035458984375,96.68486123046875,53.9040458984375,96.91286123046875C53.7709458984375,96.97796123046875,53.6377458984375,97.07566123046874,53.5046458984375,97.14076123046874C53.1051458984375,97.36876123046875,52.7389458984375,97.62926123046876,52.3395458984375,97.88976123046875C51.4407458984375,98.47596123046876,50.5752458984375,99.12736123046875,49.7096458984375,99.77866123046874C49.476645898437496,99.97406123046875,49.210345898437495,100.13686123046875,48.9773458984375,100.33226123046876C48.7443458984375,100.52766123046875,48.4779458984375,100.69046123046874,48.2449458984375,100.88586123046875C44.6497458984375,103.36086123046874,41.0212458984375,104.66346123046876,37.6924458984375,104.66346123046876C34.4300458984375,104.66346123046876,31.4341458984375,103.42596123046874,28.9374558984375,100.78816123046875C28.1385258984375,99.94146123046875,27.5060358984375,99.02956123046874,27.0399858984375,98.05266123046874C26.9734258984375,97.88976123046875,26.8735358984375,97.72696123046876,26.8069658984375,97.56416123046876C26.6738158984375,97.23846123046874,26.5406558984375,96.88026123046875,26.4407858984375,96.55466123046875C26.1744758984375,95.70786123046875,26.0080458984375,94.79606123046875,25.9414558984375,93.91676123046875C25.8082958984375,92.12566123046875,26.1079058984375,90.33456123046875,26.7403758984375,88.67366123046875C26.9401058984375,88.18516123046875,27.1731258984375,87.69676123046875,27.4061458984375,87.24076123046875C27.5725958984375,86.91516123046875,27.7723258984375,86.62206123046874,27.9720458984375,86.32896123046875C28.271635898437502,85.90556123046875,28.6045458984375,85.48226123046875,28.9707258984375,85.09146123046875C31.234365898437503,88.90166123046875,34.962745898437504,91.76746123046874,40.0891458984375,91.76746123046874C40.4886458984375,91.76746123046874,40.9214458984375,91.73486123046875,41.3541458984375,91.70226123046875C43.884145898437495,91.44176123046876,45.8481458984375,90.59506123046876,47.6124458984375,89.52036123046875C48.777545898437495,88.80396123046876,49.8427458984375,87.98976123046876,50.874745898437496,87.14306123046876C51.041245898437495,87.01286123046876,51.207645898437505,86.88256123046875,51.4073458984375,86.71976123046875C51.7402458984375,86.45916123046875,52.1064458984375,86.16616123046876,52.4393458984375,85.90556123046875C52.772245898437504,85.64506123046874,53.138445898437496,85.38456123046875,53.5045458984375,85.12406123046875C54.0372458984375,84.73326123046874,54.5698458984375,84.37496123046876,55.1357458984375,84.04936123046875C55.7016458984375,83.72366123046875,56.3008458984375,83.43056123046875,56.9333458984375,83.17006123046875C57.3660458984375,83.00726123046874,57.7655458984375,82.84436123046875,58.2315458984375,82.71416123046875C59.1303458984375,82.45366123046875,60.0957458984375,82.32336123046875,61.1609458984375,82.29076123046875C61.1943458984375,82.29076123046875,61.2941458984375,82.29076123046875,61.3607458984375,82.29076123046875C61.4272458984375,82.29076123046875,61.4938458984375,82.29076123046875,61.5604458984375,82.29076123046875C63.1583458984375,82.32336123046875,64.5564458984375,82.64896123046876,65.7881458984375,83.17006123046875C65.9878458984375,83.26776123046875,66.18754589843749,83.33286123046875,66.3873458984375,83.43056123046875C67.1862458984375,83.82136123046875,67.9519458984375,84.24476123046875,68.6509458984375,84.73326123046874C68.8174458984375,84.86346123046874,69.01714589843749,84.99376123046875,69.1836458984375,85.12406123046875C69.7162458984375,85.51476123046875,70.24884589843751,85.90556123046875,70.7481458984375,86.32896123046875C71.28084589843749,86.75226123046875,71.7801458984375,87.14306123046876,72.3127458984375,87.56646123046875C72.67894589843749,87.82696123046875,73.0118458984375,88.12006123046875,73.3779458984375,88.38056123046874C73.5444458984375,88.51086123046875,73.7441458984375,88.64116123046875,73.91064589843751,88.77136123046876C74.2768458984375,89.03186123046875,74.6429458984375,89.29246123046875,75.0424458984375,89.52036123046875C75.8080458984375,90.00886123046875,76.6403458984375,90.43226123046875,77.53914589843751,90.79046123046875C77.9718458984375,90.95326123046874,78.4711458984375,91.11616123046875,78.93724589843751,91.24636123046875C79.66954589843749,91.44176123046876,80.4352458984375,91.60456123046875,81.3007458984375,91.66976123046875C81.7667458984375,91.73486123046875,82.2328458984375,91.76746123046874,82.6988458984375,91.76746123046874C87.3593458984375,91.76746123046874,92.0863458984375,88.44576123046875,93.6841458984375,85.02626123046875C94.1835458984375,85.54736123046875,94.6162458984375,86.13356123046876,94.9824458984375,86.71976123046875C95.2487458984375,87.17566123046875,95.5150458984375,87.63156123046875,95.7147458984375,88.12006123046875C96.1475458984375,89.09706123046875,96.4471458984375,90.13916123046874,96.6135458984375,91.18126123046875C96.8799458984375,92.28846123046876,96.9132458984375,93.36316123046875,96.7800458984375,94.43786123046874ZM91.2874458984375,79.91346123046876C90.0224458984375,83.65856123046875,86.5936458984375,86.58946123046874,82.3660458984375,86.58946123046874C82.19954589843749,86.58946123046874,82.03314589843751,86.58946123046874,81.8666458984375,86.58946123046874C78.1716458984375,86.39406123046875,74.94264589843749,83.62596123046875,75.27544589843751,79.65296123046875C75.50854589843749,76.55926123046875,77.9718458984375,74.05166123046875,81.4006458984375,73.75856123046876C84.9292458984375,73.46546123046875,88.1582458984375,74.11676123046875,91.4538458984375,71.90226123046875C91.5203458984375,71.83716123046875,91.6203458984375,71.83716123046875,91.6868458984375,71.83716123046875C91.8200458984375,71.83716123046875,91.9198458984375,71.90226123046875,91.9198458984375,72.03256123046876C92.3193458984375,74.70296123046874,92.0863458984375,77.56876123046875,91.2874458984375,79.91346123046876ZM30.801595898437498,72.03256123046876C30.8348858984375,71.90226123046875,30.9347558984375,71.83716123046875,31.0346158984375,71.83716123046875C31.1011758984375,71.83716123046875,31.167775898437498,71.86976123046875,31.2676358984375,71.90226123046875C34.5632458984375,74.14936123046874,37.7922458984375,73.49806123046875,41.3208458984375,73.75856123046876C44.782945898437504,74.05166123046875,47.212945898437496,76.52666123046875,47.4459458984375,79.65296123046875C47.7455458984375,83.59346123046875,44.549845898437496,86.39406123046875,40.8547458984375,86.58946123046874C40.688345898437504,86.58946123046874,40.5219458984375,86.58946123046874,40.3554458984375,86.58946123046874C36.127745898437496,86.58946123046874,32.699045898437504,83.65856123046875,31.4340458984375,79.91346123046876C30.6684358984375,77.56876123046875,30.435415898437498,74.70296123046874,30.801595898437498,72.03256123046876Z" fill="#378BFF" fill-opacity="1"/></g></g></svg>